<?xml version="1.0" encoding="UTF-8"?>
<svg id="Layer_1" data-name="Layer 1" xmlns="http://www.w3.org/2000/svg" viewBox="0 0 6.35 11.16">
  <defs>
    <style>
      .cls-1 {
        fill-rule: evenodd;
      }
    </style>
  </defs>
  <path class="cls-1" d="m5.93,8.53c.1.07.19.1.27.07.08-.03.12-.09.14-.19.02-.1,0-.22-.04-.37-.05-.15-.16-.29-.29-.47-.13-.17-.21-.33-.27-.44-.06-.11-.13-.21-.2-.27-.07-.07-.17-.12-.29-.15-.12-.03-.29-.05-.51-.06-.8-.05-2.69-.02-3.5-.24-.32-.08-.84-.25-1.01-.58-.14-.28-.14-.6-.05-.85-.18.12-.24.59-.08,1.09.02.2.13.41.28.59.1.12.23.23.36.3.08.04.17.08.26.11.23.08.46.14.68.18.8.13,2.78.11,3.59.23.24.04.43.09.56.16.08.05.15.11.21.18.06.07.1.15.14.23.03.08.05.16.06.23,0,.07,0,.14-.02.19-.05.11-.16.14-.29.07Z"/>
  <path class="cls-1" d="m4.14,3.82s.12.22.12.35v3.13c0,.16.04.31.11.43.07.12.16.22.26.31.18.16.44.29.66.44-.06-.08-.11-.18-.16-.28-.04-.1-.07-.21-.1-.32-.02-.11-.05-.22-.05-.33v-2.71c0-.11.04-.21.06-.3.02-.08.04-.14.07-.16l-.96-.57Z"/>
  <path class="cls-1" d="m1.73,2.06s.12.22.12.35v1.21c.17.03.32.05.46.07.09.01.18.02.27.04v-.64c0-.11.03-.21.05-.3s.04-.14.07-.16l-.96-.57h0Zm.12,2.09v4.07c.24.44.37,2.69.36,2.93,0-1.83.23-2.68.53-3.2-.13-.08-.17-.3-.17-.41v-3.26c-.07-.01-.15-.02-.22-.03-.16-.02-.33-.06-.5-.1Z"/>
  <path class="cls-1" d="m3.81,1.38c-.39.3-.92.57-1.32.45-.11-.03-.21-.08-.31-.14-.18-.12-.35-.3-.43-.52-.09-.25-.07-.43.1-.69C2.03.19,2.31,0,2.61.02c-.12-.03-.23-.03-.34,0-.11.03-.21.08-.32.13-.1.06-.21.12-.31.19-.1.07-.2.12-.3.16.03.03.04.08.03.13,0,.05-.01.1-.02.15-.02.2-.01.38.03.54.05.17.12.31.21.43.1.12.21.22.35.29.51.28,1.64.07,1.86-.67Z"/>
  <path class="cls-1" d="m3.37,8.39c-.05-.05-.11-.12-.18-.2l.32-.57c.08.19.14.25.23.36.05.07.1.15.13.26l-.39.61c.03-.24-.02-.36-.11-.46Z"/>
  <path class="cls-1" d="m5.52,5.01c.09.06.17.08.24.07.07-.02.11-.06.12-.13.02-.07,0-.17-.04-.28-.05-.11-.14-.23-.26-.36-.12-.13-.19-.25-.24-.34-.05-.09-.11-.16-.18-.21-.07-.05-.15-.1-.25-.13-.1-.03-.25-.06-.45-.08-.7-.09-2.35-.19-3.07-.4-.28-.08-.74-.24-.89-.49-.13-.22-.13-.45-.06-.63-.16.08-.2.42-.05.8.02.15.11.31.25.45.09.1.2.18.32.24.07.04.15.07.22.1.2.07.4.13.6.18.7.15,2.43.26,3.15.4.21.04.38.09.5.16.07.04.13.09.18.14.05.06.09.12.12.18.03.06.05.12.06.17,0,.06,0,.1-.02.14-.04.08-.13.09-.25.03Z"/>
  <path class="cls-1" d="m3.94,1.25c-.14.22-.15.69-.16.98v1.6c-.17-.01-.34-.03-.5-.04,0-.57,0-1.12-.01-1.41,0-.13-.02-.24-.03-.34-.01-.1-.03-.16-.04-.18l.74-.61h0Zm-.21,2.97v.34s0,.54,0,.54c0,.19-.04.34-.09.48-.06.13-.13.25-.21.35-.08.1-.16.18-.24.25-.08.07-.15.13-.21.18.05-.09.09-.2.13-.31.03-.12.06-.24.09-.36.02-.12.04-.25.05-.37.02-.21.03-.57.04-.96.16.01.3-.14.46-.13Z"/>
  <path class="cls-1" d="m3.83,4.23c-.56-.05-1.13-.1-1.61-.17-.48-.07-1.47-.15-1.8-.83-.03.19.12.52.33.68.05.25.26.4.43.46.81.25,1.7.34,2.54.41v-.26c0-.1.01-.22.11-.29Z"/>
</svg>