<?xml version="1.0" encoding="UTF-8"?>
<svg id="Layer_1" data-name="Layer 1" xmlns="http://www.w3.org/2000/svg" viewBox="0 0 50.26 88.31">
  <defs>
    <style>
      .cls-1 {
        fill-rule: evenodd;
      }
    </style>
  </defs>
  <path class="cls-1" d="m46.91,67.56c.83.58,1.54.75,2.14.53.6-.22.98-.73,1.14-1.53.15-.79.03-1.77-.36-2.94-.39-1.16-1.27-2.32-2.33-3.7-1.04-1.35-1.64-2.58-2.12-3.49-.48-.9-1.01-1.63-1.59-2.16-.58-.54-1.34-.93-2.26-1.17-.92-.25-2.28-.4-4.07-.5-6.32-.37-21.27-.17-27.72-1.87-2.55-.67-6.68-1.98-7.98-4.6-1.11-2.24-1.08-4.72-.41-6.75-1.45.98-1.9,4.67-.6,8.61.15,1.57.99,3.27,2.19,4.68.81.96,1.79,1.79,2.83,2.35.63.34,1.31.64,2.02.89,1.79.64,3.6,1.08,5.42,1.46,6.35,1.02,22,.9,28.45,1.85,1.9.28,3.4.7,4.47,1.29.65.36,1.2.84,1.65,1.4.45.57.81,1.17,1.08,1.79.27.63.43,1.24.48,1.83.05.59-.01,1.08-.18,1.47-.39.89-1.24,1.09-2.27.55Z"/>
  <path class="cls-1" d="m32.76,30.21c.22.25.93,1.71.93,2.79v24.8c0,1.29.28,2.42.83,3.36.56.95,1.24,1.78,2.04,2.48,1.46,1.28,3.47,2.33,5.19,3.44-.49-.66-.91-1.4-1.23-2.22-.33-.82-.59-1.66-.77-2.52-.18-.86-.37-1.73-.37-2.61l.05-21.44c0-.91.26-1.69.4-2.35.14-.66.32-1.08.52-1.25l-7.59-4.48Z"/>
  <path class="cls-1" d="m13.7,16.34c.22.25.93,1.71.93,2.79v9.58c1.31.22,2.56.37,3.61.53.68.1,1.39.19,2.12.29v-5.1c0-.91.26-1.69.41-2.35s.32-1.08.52-1.25l-7.59-4.48h0Zm.93,16.57v32.2c1.87,3.51,2.9,21.3,2.87,23.2,0-14.49,1.81-21.23,4.17-25.32-1.06-.61-1.36-2.39-1.35-3.27l.04-25.78c-.63-.08-1.22-.16-1.77-.24-1.26-.19-2.62-.47-3.95-.8Z"/>
  <path class="cls-1" d="m30.15,10.89c-3.08,2.35-7.28,4.5-10.48,3.56-.87-.26-1.68-.63-2.43-1.12-1.46-.96-2.75-2.4-3.39-4.13-.73-1.95-.52-3.4.78-5.43C16.06,1.52,18.28.03,20.63.17c-.92-.23-1.81-.22-2.65.03-.85.25-1.68.61-2.5,1.07-.82.46-1.63.95-2.42,1.48-.8.53-1.59.94-2.39,1.25.21.26.28.6.23,1.01-.05.41-.09.8-.12,1.15-.19,1.56-.11,3,.25,4.31.36,1.31.92,2.44,1.69,3.39.76.95,1.68,1.73,2.75,2.31,4.03,2.2,13.01.54,14.68-5.28Z"/>
  <path class="cls-1" d="m26.67,66.38c-.37-.42-.85-.94-1.43-1.56l2.5-4.54c.64,1.54,1.12,2,1.81,2.82.43.52.79,1.22,1.06,2.08l-3.05,4.85c.27-1.88-.19-2.87-.88-3.65Z"/>
  <path class="cls-1" d="m43.71,39.63c.73.48,1.36.66,1.88.53.52-.13.85-.48.98-1.05.12-.58,0-1.31-.35-2.19-.36-.89-1.14-1.79-2.09-2.88-.93-1.06-1.47-2.01-1.9-2.71-.43-.7-.9-1.27-1.42-1.7-.52-.43-1.18-.77-1.99-1.01-.81-.24-2-.44-3.57-.63-5.53-.68-18.6-1.49-24.27-3.16-2.24-.66-5.86-1.89-7.04-3.91-1-1.73-1.01-3.55-.45-5.01-1.26.63-1.6,3.33-.41,6.32.15,1.17.91,2.48,1.97,3.6.72.76,1.59,1.43,2.51,1.92.56.29,1.15.56,1.78.79,1.58.58,3.16,1.03,4.76,1.43,5.57,1.16,19.25,2.08,24.9,3.19,1.67.33,2.98.74,3.93,1.24.58.31,1.06.69,1.46,1.14.4.45.73.92.97,1.4.25.48.39.94.44,1.38.05.44,0,.8-.14,1.07-.33.63-1.07.73-1.97.26Z"/>
  <path class="cls-1" d="m31.16,9.88c-1.13,1.78-1.18,5.45-1.26,7.8l-.1,12.63c-1.27-.11-2.56-.22-3.85-.34.04-4.49.01-8.9-.12-11.16-.06-1.03-.13-1.93-.22-2.68-.08-.76-.2-1.24-.35-1.44l5.89-4.81h0Zm-1.64,23.49v2.7s-.04,4.29-.04,4.29c0,1.47-.3,2.73-.75,3.79-.45,1.06-1,1.97-1.63,2.74-.63.77-1.27,1.43-1.93,1.97-.66.54-1.21,1.01-1.66,1.42.4-.73.73-1.56,1.01-2.48.28-.92.5-1.86.67-2.84.17-.97.3-1.96.37-2.95.13-1.67.24-4.48.3-7.62,1.23.12,2.36-1.13,3.64-1.02Z"/>
  <path class="cls-1" d="m30.33,33.45c-4.41-.36-8.94-.77-12.75-1.31-3.79-.54-11.6-1.19-14.23-6.6-.27,1.49.97,4.09,2.64,5.41.39,1.97,2.03,3.21,3.37,3.61,6.42,1.96,13.46,2.67,20.14,3.26v-2.05c0-.8.11-1.72.85-2.32Z"/>
</svg>